<svg xmlns="http://www.w3.org/2000/svg" width="53" height="53" fill="none"><path fill="#0AE577" stroke="#fff" stroke-width="1.656" d="M36.198 19.386 8.187 4.069a1.596 1.596 0 0 0-1.164-.151l22.454 21.993 6.721-6.525Z"/><path fill="#40C3FF" stroke="#fff" stroke-width="1.656" d="M28.29 27.065 5.847 5.084a1.647 1.647 0 0 0-.051.403v43.414l22.492-21.836Z"/><path fill="#FFC826" stroke="#fff" stroke-width="1.656" d="M48.018 28.677a1.614 1.614 0 0 0 .101-2.773l-.101-.06-10.298-5.627-7.06 6.853 7.27 7.12 10.088-5.513Z"/><path fill="#FF3945" stroke="#fff" stroke-width="1.656" d="M6.599 50.43a1.6 1.6 0 0 0 1.586.021l28.225-15.43-6.94-6.796L6.6 50.43Z"/></svg>