<svg xmlns="http://www.w3.org/2000/svg" width="60" height="60" fill="none"><path fill="#000" d="M51.265 41.246C48.537 49.043 43 56 37.982 56c-2.018 0-2.757-1.999-6.995-1.999-4.238 0-5.977 1.999-7.995 1.999C15.995 56 8 42.496 8 32.01c0-10.485 6.996-14.993 12.992-14.993 3.229 0 6.707 1.998 9.995 1.998 3.288 0 5.767-1.998 8.995-1.998 3.368 0 7.056 1.419 9.635 4.528-3.379 1.919-5.638 5.437-5.638 9.466 0 4.658 3.018 8.636 7.286 10.235ZM37.95 11.994a10.063 10.063 0 0 0 1.638-2.957c.557-1.588.771-3.363.392-5.014-.026-.115-1.59.234-1.732.274a13.97 13.97 0 0 0-2.483.96c-3.457 1.73-6.638 5.096-6.876 9.124-.032.535-.033 1.112.097 1.637.021.082 1.156-.013 1.235-.018 3.049-.218 5.874-1.682 7.729-4.006Z"/></svg>