<svg xmlns="http://www.w3.org/2000/svg" width="120" height="120" fill="none"><path fill="#fff" d="M0 0h120v120H0z"/><g clip-path="url(#a)"><path fill="#3B4158" fill-rule="evenodd" d="M39.47 39.523 19 60a57.982 57.982 0 0 0 13.872 10.248A28.898 28.898 0 0 0 39.5 80.506c11.322 11.325 29.678 11.325 41 0a28.895 28.895 0 0 0 6.629-10.258A57.98 57.98 0 0 0 101 60L80.546 39.54l-.046-.046c-11.322-11.325-29.678-11.325-41 0l-.03.03Zm39.071 34.42a57.97 57.97 0 0 1-37.082 0c.646.857 1.36 1.68 2.141 2.462 9.057 9.06 23.742 9.06 32.8 0a23.412 23.412 0 0 0 2.141-2.462Zm-34.52-30.758A28.996 28.996 0 0 0 60 47.988a28.984 28.984 0 0 0 15.98-4.803c-8.945-8.513-23.015-8.513-31.96 0Z" clip-rule="evenodd"/></g><defs><clipPath id="a"><path fill="#fff" d="M19 31h82v58H19z"/></clipPath></defs></svg>