<svg xmlns="http://www.w3.org/2000/svg" width="120" height="120" fill="none"><path fill="#fff" d="M0 0h120v120H0z"/><g clip-path="url(#a)"><path fill="#775732" d="M95.9 62.7H83.04c-11.233 0-20.34 9.106-20.34 20.34V95.9c17.73-1.315 31.886-15.47 33.2-33.2ZM57.3 95.9V83.04c0-11.234-9.106-20.34-20.34-20.34H24.1c1.315 17.73 15.471 31.885 33.2 33.2Zm38.6-38.6c-1.314-17.73-15.47-31.886-33.2-33.2v12.86c0 11.233 9.107 20.34 20.34 20.34H95.9ZM57.3 24.1c-17.729 1.314-31.885 15.47-33.2 33.2h12.86c11.234 0 20.34-9.107 20.34-20.34V24.1Z"/><path fill="#CA9352" d="M48.45 60A25.852 25.852 0 0 0 60 48.449a25.851 25.851 0 0 0 11.551 11.55 25.85 25.85 0 0 0-11.55 11.552A25.85 25.85 0 0 0 48.448 60Z"/></g><defs><clipPath id="a"><path fill="#fff" d="M24 24h72v72H24z"/></clipPath></defs></svg>