<svg xmlns="http://www.w3.org/2000/svg" width="120" height="120" fill="none"><path fill="#fff" d="M0 0h120v120H0z"/><g fill="#F06225" clip-path="url(#a)"><path d="M60 24c19.883 0 36 16.117 36 36v25.2A10.8 10.8 0 0 1 85.2 96H61.8V80.207c0-3.604.22-7.337 2.11-10.404a18 18 0 0 1 12.427-8.329l.689-.111a1.44 1.44 0 0 0 0-2.726l-.69-.111a18 18 0 0 1-14.862-14.863l-.112-.69a1.44 1.44 0 0 0-2.725 0l-.111.69a18 18 0 0 1-8.329 12.427c-3.067 1.89-6.8 2.11-10.404 2.11h-15.75C24.984 39.154 40.722 24 60 24Z"/><path d="M24 61.8h15.793c3.604 0 7.337.22 10.404 2.11a18.037 18.037 0 0 1 5.893 5.893c1.89 3.067 2.11 6.8 2.11 10.404V96H34.8A10.8 10.8 0 0 1 24 85.2V61.8Zm72-34.2a3.6 3.6 0 1 1-7.2 0 3.6 3.6 0 0 1 7.2 0Z"/></g><defs><clipPath id="a"><path fill="#fff" d="M24 24h72v72H24z"/></clipPath></defs></svg>