<svg xmlns="http://www.w3.org/2000/svg" width="120" height="120" fill="none"><path fill="#fff" d="M0 0h120v120H0z"/><g clip-path="url(#a)"><path fill="#8046FD" fill-rule="evenodd" d="M22.083 49.285a28.6 28.6 0 0 0-1.557 16.178c1.056 5.431 3.663 10.42 7.49 14.336 3.828 3.916 8.704 6.583 14.013 7.663a26.796 26.796 0 0 0 15.813-1.593c5-2.12 9.275-5.709 12.282-10.313a27.667 27.667 0 0 0 .402-.634V88h2.106a26.93 26.93 0 0 0 15.205-4.719c4.5-3.076 8.008-7.45 10.08-12.566a28.6 28.6 0 0 0 1.557-16.178c-1.056-5.431-3.662-10.42-7.49-14.336-3.828-3.916-8.704-6.583-14.013-7.663a26.795 26.795 0 0 0-15.813 1.593c-5 2.12-9.275 5.709-12.282 10.313-.137.21-.271.421-.402.634V32h-2.106a26.93 26.93 0 0 0-15.205 4.719c-4.5 3.076-8.008 7.45-10.08 12.566ZM45.263 60V36.406a22.826 22.826 0 0 0-10.76 3.895c-3.809 2.603-6.777 6.303-8.53 10.632a24.201 24.201 0 0 0-1.317 13.69 23.867 23.867 0 0 0 6.337 12.13 23.002 23.002 0 0 0 11.858 6.484c4.492.914 9.148.445 13.38-1.348a23.262 23.262 0 0 0 10.08-8.261A14.404 14.404 0 0 1 60 75.077c-8.139 0-14.737-6.75-14.737-15.077Zm29.474 23.594V60c0-8.327-6.598-15.077-14.737-15.077-2.259 0-4.399.52-6.312 1.449a23.262 23.262 0 0 1 10.081-8.26 22.673 22.673 0 0 1 13.38-1.349 23.002 23.002 0 0 1 11.858 6.484 23.865 23.865 0 0 1 6.337 12.13 24.2 24.2 0 0 1-1.317 13.69c-1.753 4.329-4.721 8.03-8.53 10.632a22.826 22.826 0 0 1-10.76 3.895ZM59.789 70.767c-5.646-.113-10.202-4.775-10.313-10.552h3.982c3.142.733 5.615 3.263 6.331 6.477v4.075Zm.421 0c5.647-.113 10.203-4.775 10.314-10.552h-3.982c-3.142.733-5.615 3.263-6.332 6.478v4.074Zm10.314-10.982c-.11-5.777-4.667-10.439-10.314-10.552v4.074c.717 3.214 3.19 5.745 6.331 6.478h3.983ZM59.79 49.233c-5.646.113-10.202 4.775-10.313 10.552h3.983c3.141-.733 5.614-3.263 6.33-6.477v-4.075Z" clip-rule="evenodd"/></g><defs><clipPath id="a"><path fill="#fff" d="M20 32h80v56H20z"/></clipPath></defs></svg>