<svg xmlns="http://www.w3.org/2000/svg" width="120" height="120" fill="none"><path fill="#fff" d="M0 0h120v120H0z"/><g clip-path="url(#a)"><path fill="#A5B4FC" d="m60 29 39 23.265V67.73L60 91 21 67.729V52.265L60 29Z"/><path fill="#4F46E5" fill-rule="evenodd" d="M21 52.265 60 29l39 23.265V67.73L60 91 21 67.729V52.265Zm39 28.863 30.727-18.335v-5.59l-.002-.002L60 75.531 29.275 57.2l-.002.001v5.591L60 81.128Zm0-14.146 23.559-14.054-5.74-3.422L60 60.136l-17.82-10.63-5.739 3.422L60 66.982Zm0-15.394 10.653-6.355L60 38.881l-10.653 6.352L60 51.588Z" clip-rule="evenodd"/><path fill="#A5B4FC" fill-opacity=".3" d="M60 29 21 52.265V67.73L60 91V29Z"/></g><defs><clipPath id="a"><path fill="#fff" d="M21 29h78v62H21z"/></clipPath></defs></svg>